#!OML:ASF E:\motion texture\Top Level 1\Subject 1\Session 1\male.ASF
:FULLY-SPECIFIED
:DEGREES
300
root -9.24869 18.008 4.52889 176.368 -86.2883 -172.197
lowerback -1.59555 1.96629 -0.429989
upperback 1.05752 2.63977 -0.536926
thorax 1.98323 1.31463 -0.222589
lowerneck -13.0965 3.93622 -2.93201
upperneck 31.5975 8.96119 -10.986
head 13.3135 1.71213 -2.5481
rclavicle 1.95306e-014 1.39149e-015
rhumerus -10.796 22.1521 -96.8798
rradius 71.2009
rwrist -25.5265
rhand -8.24947 -35.0105
rfingers 7.12502
rthumb 17.6688 -64.2277
lclavicle 1.95306e-014 1.39149e-015
lhumerus -7.81987 23.7237 80.8682
lradius 50.6617
lwrist 36.5875
lhand -13.2418 34.9739
lfingers 7.12502
lthumb 12.8601 64.5578
rfemur -35.8211 -7.83694 21.5693
rtibia 43.9925
rfoot -5.41501 -15.6662
rtoes 4.0173
lfemur -3.66185 -6.29423 -22.4326
ltibia 13.8443
lfoot -11.3192 5.15818
ltoes -0.15792
301
root -9.37365 17.9975 4.53539 177.186 -86.5755 -172.727
lowerback -1.66562 1.91181 -0.406838
upperback 1.09691 2.56731 -0.534896
thorax 2.0638 1.2785 -0.232339
lowerneck -13.0864 3.82381 -2.98788
upperneck 31.5683 8.78824 -10.9186
head 13.2806 1.64429 -2.53595
rclavicle -2.93207e-015 3.97569e-016
rhumerus -11.071 21.7043 -96.6472
rradius 71.8135
rwrist -25.587
rhand -8.15298 -34.9229
rfingers 7.12502
rthumb 17.7616 -64.1317
lclavicle -2.93207e-015 3.97569e-016
lhumerus -8.40149 23.109 80.9717
lradius 52.1979
lwrist 36.8048
lhand -12.7371 34.6686
lfingers 7.12502
lthumb 13.3466 64.2212
rfemur -36.0408 -7.97141 21.492
rtibia 41.0912
rfoot -5.36742 -15.9463
rtoes 4.19632
lfemur -3.47527 -6.33659 -22.5813
ltibia 13.7531
lfoot -11.6751 4.9893
ltoes -0.207071
302
root -9.5014 17.9856 4.54189 178.062 -86.865 -173.316
lowerback -1.75043 1.85605 -0.368194
upperback 1.13369 2.49292 -0.539475
thorax 2.15089 1.24171 -0.257301
lowerneck -13.0603 3.7099 -3.05072
upperneck 31.5294 8.6057 -10.8282
head 13.2378 1.57577 -2.51455
rclavicle -5.34234e-015 3.97569e-016
rhumerus -11.3634 21.246 -96.3581
rradius 72.5479
rwrist -25.627
rhand -7.9985 -34.8129
rfingers 7.12502
rthumb 17.9103 -64.0082
lclavicle -5.34234e-015 3.97569e-016
lhumerus -9.00452 22.5101 81.0665
lradius 53.7734
lwrist 37.0354
lhand -11.8333 34.1486
lfingers 7.12502
lthumb 14.2176 63.642
rfemur -36.1677 -8.04191 21.388
rtibia 38.0745
rfoot -5.22642 -16.1482
rtoes 4.23745
lfemur -3.28061 -6.38372 -22.7242
ltibia 13.6644
lfoot -12.0413 4.81697
ltoes -0.202318
303
root -9.63039 17.9716 4.54761 179.091 -87.1702 -174.037
lowerback -1.8542 1.79079 -0.331519
upperback 1.16056 2.40601 -0.54649
thorax 2.23836 1.19872 -0.283924
lowerneck -13.0234 3.59756 -3.12125
upperneck 31.4832 8.42064 -10.7208
head 13.1883 1.50828 -2.48511
rclavicle 3.2054e-015 3.18055e-015
rhumerus -11.6582 20.7881 -96.0115
rradius 73.3751
rwrist -25.6765
rhand -7.81196 -34.6599
rfingers 7.12502
rthumb 18.0898 -63.8386
lclavicle 3.2054e-015 3.18055e-015
lhumerus -9.62103 21.9473 81.1492
lradius 55.3687
lwrist 37.2469
lhand -10.9109 33.629
lfingers 7.12502
lthumb 15.1063 63.0577
rfemur -36.2393 -8.01853 21.2452
rtibia 34.9728
rfoot -5.04763 -16.3146
rtoes 4.14163
lfemur -3.11409 -6.42481 -22.8542
ltibia 13.5926
lfoot -12.4187 4.61417
ltoes -0.134016
304
root -9.7621 17.9559 4.55301 180.443 -87.4653 -175.081
lowerback -1.97601 1.72431 -0.296571
upperback 1.18883 2.3176 -0.555461
thorax 2.33729 1.15501 -0.311349
lowerneck -12.9805 3.48766 -3.19893
upperneck 31.4318 8.23697 -10.6033
head 13.1349 1.44224 -2.45005
rclavicle 1.06598e-014 1.98785e-016
rhumerus -11.9415 20.3314 -95.6017
rradius 74.2707
rwrist -25.7702
rhand -7.59823 -34.4664
rfingers 7.12502
rthumb 18.2954 -63.626
lclavicle 1.06598e-014 1.98785e-016
lhumerus -10.2561 21.4263 81.2191
lradius 56.9819
lwrist 37.417
lhand -10.0646 33.17
lfingers 7.12502
lthumb 15.9214 62.5355
rfemur -36.23 -7.85001 21.0353
rtibia 31.8059
rfoot -4.89397 -16.4868
rtoes 3.95549
lfemur -2.93162 -6.45385 -22.9831
ltibia 13.5149
lfoot -12.8038 4.40109
ltoes -0.0588378
305
root -9.89562 17.9382 4.55766 182.481 -87.7541 -176.805
lowerback -2.10826 1.65341 -0.279398
upperback 1.20825 2.22389 -0.56861
thorax 2.43237 1.10845 -0.333563
lowerneck -12.9273 3.38192 -3.27743
upperneck 31.3786 8.05665 -10.4808
head 13.079 1.37836 -2.41238
rclavicle -5.56597e-015 7.55382e-015
rhumerus -12.2207 19.8619 -95.1381
rradius 75.2224
rwrist -25.9009
rhand -7.34243 -34.2561
rfingers 7.12502
rthumb 18.5415 -63.3925
lclavicle -5.56597e-015 7.55382e-015
lhumerus -10.9192 20.9528 81.2671
lradius 58.6043
lwrist 37.5314
lhand -9.2861 32.7427
lfingers 7.12502
lthumb 16.671 62.0468
rfemur -36.1617 -7.49824 20.7263
rtibia 28.6096
rfoot -4.78969 -16.71
rtoes 3.61839
lfemur -2.75175 -6.45839 -23.1169
ltibia 13.4405
lfoot -13.1935 4.15726
ltoes 0.0116995
306
root -10.03 17.9185 4.5609 185.564 -88.0498 -179.557
lowerback -2.25756 1.57327 -0.295397
upperback 1.22216 2.11899 -0.580375
thorax 2.53 1.05576 -0.336318
lowerneck -12.874 3.27845 -3.35241
upperneck 31.3194 7.88037 -10.365
head 13.0219 1.31597 -2.37712
rclavicle -1.07095e-014 5.1684e-015
rhumerus -12.4737 19.3546 -94.6122
rradius 76.2136
rwrist -26.0431
rhand -7.04739 -34.0209
rfingers 7.12502
rthumb 18.8252 -63.13
lclavicle -1.07095e-014 5.1684e-015
lhumerus -11.6024 20.5323 81.3015
lradius 60.2342
lwrist 37.5867
lhand -8.83529 32.4723
lfingers 7.12502
lthumb 17.105 61.7393
rfemur -36.051 -6.92225 20.2854
rtibia 25.4158
rfoot -4.76939 -17.0566
rtoes 3.18218
lfemur -2.59608 -6.443 -23.2496
ltibia 13.3803
lfoot -13.5859 3.86206
ltoes 0.107742
307
root -10.1662 17.8971 4.56327 190.267 -88.3196 -183.933
lowerback -2.40156 1.49308 -0.340002
upperback 1.22566 2.015 -0.594007
thorax 2.61305 1.00308 -0.325773
lowerneck -12.8119 3.17967 -3.4287
upperneck 31.2696 7.70998 -10.247
head 12.9677 1.25541 -2.34047
rclavicle -6.29899e-015 6.4605e-015
rhumerus -12.7191 18.787 -94.0385
rradius 77.2261
rwrist -26.1741
rhand -6.69295 -33.7796
rfingers 7.12502
rthumb 19.1661 -62.8552
lclavicle -6.29899e-015 6.4605e-015
lhumerus -12.3299 20.1649 81.3126
lradius 61.8686
lwrist 37.6038
lhand -8.40957 32.1883
lfingers 7.12502
lthumb 17.5147 61.4194
rfemur -35.8819 -6.0823 19.6814
rtibia 22.2552
rfoot -4.82958 -17.5402
rtoes 2.60691
lfemur -2.42822 -6.40194 -23.395
ltibia 13.3202
lfoot -13.9805 3.54322
ltoes 0.220151
308
root -10.3043 17.8741 4.56474 197.208 -88.5566 -190.557
lowerback -2.53607 1.4109 -0.415534
upperback 1.21744 1.90948 -0.607013
thorax 2.67781 0.949104 -0.298253
lowerneck -12.7209 3.08591 -3.50338
upperneck 31.2204 7.54327 -10.1312
head 12.9084 1.19656 -2.30476
rclavicle 8.1626e-015 -9.24349e-015
rhumerus -12.9535 18.1452 -93.4204
rradius 78.2414
rwrist -26.2784
rhand -6.33573 -33.5104
rfingers 7.12502
rthumb 19.5096 -62.5516
lclavicle 8.1626e-015 -9.24349e-015
lhumerus -13.1065 19.8494 81.3029
lradius 63.5042
lwrist 37.6132
lhand -8.02676 31.9087
lfingers 7.12502
lthumb 17.8831 61.1064
rfemur -35.6637 -4.96986 18.8977
rtibia 19.1828
rfoot -4.99274 -18.1933
rtoes 1.92868
lfemur -2.24568 -6.33933 -23.5524
ltibia 13.2667
lfoot -14.3798 3.20433
ltoes 0.321935
309
root -10.4438 17.8497 4.56553 206.764 -88.7401 -199.813
lowerback -2.65518 1.32759 -0.512952
upperback 1.20438 1.80327 -0.618203
thorax 2.72843 0.894372 -0.257514
lowerneck -12.6126 2.99983 -3.57919
upperneck 31.1678 7.38582 -10.0171
head 12.8451 1.14165 -2.26822
rclavicle -1.5381e-014 1.39149e-015
rhumerus -13.1676 17.3961 -92.7716
rradius 79.244
rwrist -26.3471
rhand -6.01049 -33.2003
rfingers 7.12502
rthumb 19.8223 -62.2094
lclavicle -1.5381e-014 1.39149e-015
lhumerus -13.9173 19.5893 81.2798
lradius 65.139
lwrist 37.6455
lhand -7.77888 31.6829
lfingers 7.12502
lthumb 18.1216 60.8588
rfemur -35.4294 -3.62042 17.9521
rtibia 16.2878
rfoot -5.27607 -19.0095
rtoes 1.08973
lfemur -2.04605 -6.25809 -23.7205
ltibia 13.2301
lfoot -14.7883 2.86103
ltoes 0.458702
310
root -10.5845 17.8239 4.56555 218.296 -88.8507 -211.061
lowerback -2.75352 1.24717 -0.621424
upperback 1.19018 1.70126 -0.627593
thorax 2.76613 0.841524 -0.209366
lowerneck -12.5086 2.92027 -3.64905
upperneck 31.1161 7.23766 -9.90549
head 12.7844 1.09071 -2.23235
rclavicle 8.1129e-015 1.04362e-014
rhumerus -13.3362 16.5399 -92.0919
rradius 80.2129
rwrist -26.3814
rhand -5.73477 -32.8992
rfingers 7.12502
rthumb 20.0873 -61.8808
lclavicle 8.1129e-015 1.04362e-014
lhumerus -14.7488 19.3727 81.2454
lradius 66.7729
lwrist 37.713
lhand -7.42195 31.3812
lfingers 7.12502
lthumb 18.465 60.5248
rfemur -35.2387 -2.11656 16.9029
rtibia 13.7034
rfoot -5.74485 -19.9631
rtoes 0.123643
lfemur -1.83988 -6.15383 -23.8872
ltibia 13.2256
lfoot -15.2089 2.52415
ltoes 0.566239
311
root -10.7254 17.7967 4.56505 230.336 -88.8876 -222.832
lowerback -2.83995 1.17131 -0.728469
upperback 1.18718 1.60542 -0.636419
thorax 2.80903 0.791693 -0.161491
lowerneck -12.43 2.84313 -3.70091
upperneck 31.0588 7.09632 -9.80997
head 12.7292 1.04248 -2.20441
rclavicle -2.12451e-015 9.93923e-016
rhumerus -13.4255 15.5742 -91.3801
rradius 81.1328
rwrist -26.4042
rhand -5.58552 -32.5955
rfingers 7.12502
rthumb 20.2308 -61.5619
lclavicle -2.12451e-015 9.93923e-016
lhumerus -15.5669 19.1978 81.2081
lradius 68.3887
lwrist 37.7774
lhand -7.08578 31.1026
lfingers 7.12502
lthumb 18.7883 60.2152
rfemur -35.1629 -0.653348 15.8642
rtibia 11.5881
rfoot -6.41121 -20.9133
rtoes -0.949189
lfemur -1.63892 -6.03571 -24.0491
ltibia 13.2675
lfoot -15.6436 2.20616
ltoes 0.617982
312
root -10.8665 17.7682 4.56448 241.264 -88.8708 -233.507
lowerback -2.91467 1.09836 -0.819124
upperback 1.20302 1.51289 -0.641424
thorax 2.86537 0.743648 -0.118932
lowerneck -12.3973 2.76746 -3.73017
upperneck 30.999 6.96455 -9.73876
head 12.6856 0.997031 -2.18799
rclavicle 1.11319e-014 -1.09829e-014
rhumerus -13.4095 14.5107 -90.6313
rradius 81.9823
rwrist -26.4325
rhand -5.61168 -32.2943
rfingers 7.12502
rthumb 20.2056 -61.2634
lclavicle 1.11319e-014 -1.09829e-014
lhumerus -16.3443 19.0747 81.1778
lradius 69.9628
lwrist 37.7959
lhand -6.77679 30.862
lfingers 7.12502
lthumb 19.0855 59.9456
rfemur -35.2511 0.495995 15.0048
rtibia 10.0881
rfoot -7.21957 -21.6284
rtoes -2.03509
lfemur -1.44553 -5.9195 -24.2001
ltibia 13.3665
lfoot -16.0946 1.91492
ltoes 0.584338
313
root -11.0075 17.7389 4.56466 249.889 -88.8078 -241.904
lowerback -2.95924 1.03076 -0.886195
upperback 1.23524 1.4264 -0.6466
thorax 2.92245 0.698955 -0.0900561
lowerneck -12.4096 2.69602 -3.74524
upperneck 30.9381 6.84459 -9.67862
head 12.6531 0.956056 -2.17619
rclavicle -6.7711e-016 -2.48481e-016
rhumerus -13.2917 13.3701 -89.8498
rradius 82.7529
rwrist -26.4828
rhand -5.83539 -31.9881
rfingers 7.12502
rthumb 19.9906 -60.9798
lclavicle -6.7711e-016 -2.48481e-016
lhumerus -17.0856 19.0075 81.1517
lradius 71.481
lwrist 37.7368
lhand -6.39001 30.5789
lfingers 7.12502
lthumb 19.4574 59.6254
rfemur -35.527 1.06433 14.4946
rtibia 9.3038
rfoot -7.96104 -21.842
rtoes -3.1107
lfemur -1.2507 -5.8109 -24.3556
ltibia 13.5238
lfoot -16.56 1.67143
ltoes 0.457393
